<svg id="Ebene_1" data-name="Ebene 1" xmlns="http://www.w3.org/2000/svg" viewBox="0 0 697.76 333.6"><defs><style>.cls-1{fill:none;stroke:#e85454;stroke-miterlimit:10;stroke-width:4px;}.cls-2{fill:#e85454;}.cls-3{fill:#5c4594;}</style></defs><title>runconf-header-logo-01</title><line class="cls-1" y1="2" x2="241.48" y2="2"/><line class="cls-1" x1="2" y1="239.48" x2="2" y2="4"/><line class="cls-1" x1="241.48" y1="2" x2="697.76" y2="2"/><line class="cls-1" x1="241.48" y1="239.48" x2="241.48" y2="4"/><line class="cls-1" x1="695.76" y1="239.48" x2="695.76" y2="4"/><line class="cls-1" y1="241.48" x2="241.48" y2="241.48"/><line class="cls-1" x1="2" y1="329.6" x2="2" y2="243.48"/><line class="cls-1" x1="241.48" y1="241.48" x2="697.76" y2="241.48"/><line class="cls-1" x1="695.76" y1="329.6" x2="695.76" y2="243.48"/><line class="cls-1" y1="331.6" x2="241.48" y2="331.6"/><line class="cls-1" x1="241.48" y1="331.6" x2="697.76" y2="331.6"/><path class="cls-2" d="M55.91,311.34V288.9l-4.59,8.93H46.12l-4.59-8.93v22.44H31.12V269.93H41.78l6.94,12.77,6.94-12.77h11v41.41Z"/><path class="cls-2" d="M110.35,311.34l-1.8-8H99.13l-1.8,8H86.85l9.92-41.41h14.57l9.92,41.41Zm-6.57-28.89-2.85,12.71h5.77Z"/><path class="cls-2" d="M159.64,293.11v18.23H148.91V293.11l-12-23.19h12.21l5.39,11.72L160,269.93h11.66Z"/><path class="cls-2" d="M233.23,311.71h-4.59V301.42H233c4.59,0,11.84-.37,11.84-6.51,0-2.85-2-4.46-6.57-4.46a59.21,59.21,0,0,0-9.92,1.05l1.49-24.8h24.92v9.61H239.93l-.31,4.59a22,22,0,0,1,3-.12c9.55,0,13.27,6.26,13.27,13.95C255.92,306.57,246.56,311.71,233.23,311.71Z"/><path class="cls-2" d="M288.44,272.15v18.54h-6.25V272.15h-5.57v-5.6H294v5.6Z"/><path class="cls-2" d="M316.85,290.69v-9.76h-4.48v9.76h-6.25V266.55h6.25v8.78h4.48v-8.78h6.25v24.15Z"/><path class="cls-2" d="M397.62,311.34l-1.8-8H386.4l-1.8,8H374.13L384,269.93h14.57l9.92,41.41Zm-6.57-28.89-2.85,12.71H394Z"/><path class="cls-2" d="M448.21,311.34l-8.68-19.16v19.16H429.37V269.93h10.79l8.43,18.72V269.93h10.17v41.41Z"/><path class="cls-2" d="M490.5,311.34h-7V269.93h7c13.14,0,21.26,8.8,21.26,20.71S503.64,311.34,490.5,311.34Zm3.78-31.49v21.58c3.6-1.05,6.45-5.77,6.45-10.79C500.73,285.18,497.88,280.9,494.28,279.85Z"/><path class="cls-2" d="M587.28,312c-9.42,0-16.06-6.08-16.06-14.94,0-5.77,2.36-11.35,5.7-16.55a94.32,94.32,0,0,1,11.28-13.76H602a162.23,162.23,0,0,0-14.75,15.93,8.59,8.59,0,0,1,2.85-.25c6.26,0,13.08,5.46,13.08,14.63C603.21,305.88,596.7,312,587.28,312Zm0-20.15c-2.91,0-5,1.86-5,5.21s2.11,5.21,5,5.21,5-1.86,5-5.21S590.19,291.81,587.28,291.81Z"/><path class="cls-2" d="M633.43,272.15v18.54h-6.25V272.15h-5.57v-5.6H639v5.6Z"/><path class="cls-2" d="M661.84,290.69v-9.76h-4.48v9.76h-6.25V266.55h6.25v8.78h4.48v-8.78h6.25v24.15Z"/><path class="cls-2" d="M668.1,290.69V266.55h-6.25v8.78h-4.48v-8.78h-6.25v24.15h6.25v-9.76h4.48v9.76ZM639,272.15v-5.6H621.61v5.6h5.57v18.54h6.25V272.15ZM592.43,297c0,3.35-2,5.21-5,5.21s-5-1.86-5-5.21,2.11-5.21,5-5.21,5,1.86,5,5.21m11,0c0-9.18-6.82-14.63-13.08-14.63a8.6,8.6,0,0,0-2.85.25,162.17,162.17,0,0,1,14.76-15.93H588.4a94.26,94.26,0,0,0-11.28,13.76c-3.35,5.21-5.7,10.79-5.7,16.55,0,8.87,6.63,14.94,16.06,14.94S603.4,305.88,603.4,297m-102.55-6.39c0,5-2.85,9.73-6.45,10.79V279.84c3.6,1.05,6.45,5.33,6.45,10.79m11,0c0-11.9-8.12-20.71-21.27-20.71h-7v41.42h7c13.14,0,21.27-8.68,21.27-20.71m-53.07,20.71V269.92H448.65v18.72l-8.43-18.72H429.43v41.42H439.6V292.18l8.68,19.16ZM394,295.16h-5.77l2.85-12.71Zm14.57,16.18-9.92-41.42H384.11l-9.92,41.42h10.48l1.8-8h9.42l1.8,8Zm-85.5-20.65V266.55h-6.25v8.78h-4.48v-8.78h-6.25v24.15h6.25v-9.76h4.48v9.76ZM294,272.15v-5.6H276.62v5.6h5.57v18.54h6.25V272.15Zm-38,22.57c0-7.69-3.72-14-13.27-14a22,22,0,0,0-3,.12l.31-4.59h14.88V266.7H229.95l-1.49,24.8a59.19,59.19,0,0,1,9.92-1.05c4.53,0,6.57,1.61,6.57,4.46,0,6.14-7.25,6.51-11.84,6.51h-4.4v10.29h4.59c13.33,0,22.69-5.15,22.69-17m-84.32-24.8H160l-5.46,11.72-5.39-11.72H136.95l12,23.19v18.23h10.73V293.11Zm-65,25.23h-5.77l2.85-12.71Zm14.57,16.18-9.92-41.42H96.77l-9.92,41.42H97.33l1.8-8h9.42l1.8,8Zm-54.62,0V269.92h-11L48.72,282.7l-6.94-12.77H31.12v41.42H41.53V288.9l4.59,8.93h5.21l4.59-8.93v22.44Z"/><polygon class="cls-2" points="74.55 67.61 36.85 105.31 119.42 187.89 201.59 105.72 163.48 67.61 74.55 67.61"/><path class="cls-3" d="M125.9,142.6c-7.25-7.25-16.21-9.79-22.37-3.63s-3.63,15.11,3.63,22.37,16.21,9.79,22.37,3.63,3.63-15.11-3.63-22.37m-6.73,6.73c5.33,5.33,6,8.12,4.42,9.71s-4.38.91-9.71-4.42-6-8.12-4.42-9.71,4.38-.91,9.71,4.42m39.49-14.25-25.24-25.24-6.2,6.2,11.41,11.41-16.55-6.27-6.57,6.57L140.75,153l6.2-6.2-11.68-11.68,17,6.39Zm-1.2-37.57-5.86-5.86-14.77,14.78,25.24,25.24,6.54-6.54-9.86-9.86,6.69-6.69-5.86-5.86-6.69,6.69-3.67-3.67Z"/><path class="cls-3" d="M96.34,113.72,79.18,96.57l-6.35,6.35,17,17c1.51,1.51,1.43,3.4-.19,5s-3.48,1.66-5,.15l-17-17-6.54,6.54,17.15,17.15c5.29,5.29,12.21,4.72,17.5-.57s5.86-12.21.57-17.49M125.24,101,100,75.76,93.8,82l11.41,11.41L88.66,87.09l-6.58,6.57,25.24,25.24,6.2-6.2L101.85,101l17,6.39Zm11.84-28.69-6.61,6.61c2.19,2.64,2.19,3.7,1.21,4.69-2.12,2.12-4.95-.19-9.52-4.76s-6.8-7.33-4.68-9.45c.87-.87,1.89-1.06,4.16.91l6.54-6.54c-6-5.37-11.15-5.78-16.51-.42-6.57,6.58-4.87,13.56,3.78,22.22s15.64,10.35,22.07,3.93c5.78-5.78,5.48-10.32-.41-17.19"/><path class="cls-3" d="M404,196.41c0,1.8-1.24,4.15-4.77,4.15s-4.77-2.36-4.77-4.15c0-3.1,2.54-4.4,4.77-5.83,2.23,1.43,4.77,2.73,4.77,5.83m-1.12-19.65c0,1.61-1.24,2.67-3.66,4.28-2.42-1.61-3.66-2.67-3.66-4.28,0-1,.68-3,3.66-3,3.29,0,3.66,2.36,3.66,3M415,196.47a10.87,10.87,0,0,0-2.17-7.13,17.18,17.18,0,0,0-4.34-3.78,18.26,18.26,0,0,0,3.6-3.66,9.88,9.88,0,0,0,1.67-5.58c0-7.32-6.88-11.9-14.57-11.9s-14.57,4.59-14.57,11.9a9.88,9.88,0,0,0,1.67,5.58,18.26,18.26,0,0,0,3.6,3.66,17.18,17.18,0,0,0-4.34,3.78,11,11,0,0,0-2.17,7.13c0,9,6.63,13.83,15.81,13.83S415,205.46,415,196.47m-46,13.21V165H357.61l-10.73,9.86v13.76l11.35-10.54v31.56Zm-44.39-22.32c0,4.34.06,9.49-1.55,11.47-.56.68-1.36,1.05-3.22,1.05s-2.67-.37-3.22-1.05c-1.61-2-1.55-7.13-1.55-11.47s-.06-9.49,1.55-11.47c.56-.68,1.36-1.05,3.22-1.05s2.67.37,3.22,1.05c1.61,2,1.55,7.13,1.55,11.47m11,0c0-8.93-1.24-16.86-4.9-20.15-2.42-2.17-6.57-2.79-10.91-2.79s-8.49.62-10.91,2.79c-3.66,3.29-4.9,11.22-4.9,20.15s1.24,16.86,4.9,20.15c2.42,2.17,6.57,2.79,10.91,2.79s8.49-.62,10.91-2.79c3.66-3.29,4.9-11.22,4.9-20.15M295,177.5c0-6.2-3.35-13.08-14.51-13.08-4.71,0-8.62,1.18-14,4.77v11.16c8.18-5.77,11.53-6.2,14.2-6.2A3.21,3.21,0,0,1,284,177.5a4.54,4.54,0,0,1-1.43,3.47,19,19,0,0,1-4.15,3c-4.22,2.6-7.19,4.77-9.24,7.63s-3.22,6.32-3.22,11.66v6.45h28.46v-9.61h-17.3c.81-4,4.71-6.32,9.18-9.18,2.67-1.67,5.15-3.35,6.76-6.14a15.32,15.32,0,0,0,2-7.25"/><path class="cls-3" d="M537.47,140.7V118.31H523v9.49h3.72v5.52a6.82,6.82,0,0,1-1.92.25c-5,0-6-5.83-6-11.59,0-6,1.18-11.59,5.21-11.59,1.55,0,2.36.74,2.67,3h10.73c-.62-7.81-4.71-12.71-12.83-12.71-12.28,0-16.8,10.6-16.8,21.33,0,11.16,4.09,21.33,16.74,21.33a28.79,28.79,0,0,0,12.9-2.6m-51-26.54c0,1.67-.74,3.29-3.35,3.29h-2.54v-6.57h2.54c2.6,0,3.35,1.61,3.35,3.29m15,28.52-10.11-17.42c3.91-2.17,6.14-6.14,6.14-11.1,0-7.75-5.7-12.9-13.89-12.9H469.77v41.42h10.79v-15.5h.25l8.18,15.5Zm-42.78-13.27V101.26H448.25v27.9c0,2.48-1.61,4-4.28,4s-4.22-1.49-4.22-4v-27.9H429v28.15c0,8.68,6.14,13.89,14.82,13.89s14.82-5.21,14.82-13.89m-49.29-.12c0,1.92-1.12,3.84-4.09,3.84h-5.77v-7.69h5.77c3,0,4.09,1.92,4.09,3.84m-1.05-15.56c0,1.36-.74,2.91-3.22,2.91h-5.58v-5.83h5.58c2.48,0,3.22,1.55,3.22,2.91m12.09,15.93c0-2.67-.87-6.57-4.4-8.8,2-1.36,3.22-4.4,3.22-7.5,0-7.81-6.08-12.09-14.45-12.09h-16v41.42h16.74c9.18,0,14.88-5.33,14.88-13m-40.67,13V101.26h-11L361.83,114l-6.94-12.77H344.22v41.42h10.42V120.24l4.59,8.93h5.21l4.59-8.93v22.44ZM322.46,126.5h-5.77l2.85-12.71ZM337,142.68l-9.92-41.42H312.54l-9.92,41.42H313.1l1.8-8h9.42l1.8,8Zm-42.28,0V101.26H284v15.07h-7.69V101.26H265.6v41.42h10.73V125.94H284v16.74Z"/><path class="cls-3" d="M665.69,43.87V34.26H641.44V75.68h10.73V59.5h11V49.89h-11v-6Zm-36,31.81V34.26H619.5V53l-8.43-18.72H600.28V75.68h10.17V56.52l8.68,19.16ZM579.63,55c0,8.74-1.74,11.59-4.34,11.59S571,63.71,571,55s1.74-11.59,4.34-11.59,4.34,2.85,4.34,11.59m11,0c0-11.9-5.27-21.33-15.38-21.33S559.91,43.07,559.91,55s5.27,21.33,15.38,21.33S590.67,66.88,590.67,55m-37.88,6.88H541.94c-.37,4-1.24,4.84-2.85,4.84-3.47,0-3.91-4.22-3.91-11.72s.43-11.59,3.91-11.59c1.43,0,2.42.68,2.67,4.15h10.73c-.5-9.3-4.4-13.89-13.21-13.89-10.79,0-15.13,7.13-15.13,21.33S528.48,76.3,539,76.3c9.49,0,13-4,13.76-14.45M513.11,75.68V34.26H502.94V53l-8.43-18.72H483.72V75.68h10.17V56.52l8.68,19.16ZM473.55,62.41V34.26H463.13v27.9c0,2.48-1.61,4-4.28,4s-4.22-1.49-4.22-4V34.26H443.91V62.41c0,8.68,6.14,13.89,14.82,13.89s14.82-5.21,14.82-13.89M414.09,34.26H402.44L397,46l-5.39-11.72H379.37l12,23.19V75.68h10.73V57.45Zm-49.35,28c0,1.92-1.12,3.84-4.09,3.84h-5.77V58.44h5.77c3,0,4.09,1.92,4.09,3.84m-1.05-15.56c0,1.36-.74,2.91-3.22,2.91h-5.58V43.81h5.58c2.48,0,3.22,1.55,3.22,2.91m12.09,15.93c0-2.67-.87-6.57-4.4-8.8,2-1.36,3.22-4.4,3.22-7.5,0-7.81-6.08-12.09-14.45-12.09h-16V75.68H360.9c9.18,0,14.88-5.33,14.88-13m-41.11-.25V34.26H324.26v27.9c0,2.48-1.61,4-4.28,4s-4.22-1.49-4.22-4V34.26H305V62.41c0,8.68,6.14,13.89,14.82,13.89s14.82-5.21,14.82-13.89M283.09,47.16c0,1.67-.74,3.29-3.35,3.29H277.2V43.87h2.54c2.6,0,3.35,1.61,3.35,3.29m15,28.52L288,58.26c3.91-2.17,6.14-6.14,6.14-11.1,0-7.75-5.7-12.9-13.89-12.9H266.41V75.68H277.2V60.18h.25l8.18,15.5Z"/></svg>